<svg version="1.0" xmlns="http://www.w3.org/2000/svg"
 width="180.000000pt" height="180.000000pt" viewBox="0 0 180.000000 180.000000"
 preserveAspectRatio="xMidYMid meet">

<g transform="translate(0.000000,180.000000) scale(0.100000,-0.100000)"
fill="#000000" stroke="none">
<path d="M241 1604 c-76 -96 -123 -565 -89 -894 18 -177 18 -172 -20 -182 -41
-11 -32 -32 10 -23 21 5 33 3 39 -6 14 -23 11 -28 -26 -46 -19 -9 -35 -21 -35
-26 0 -8 11 -7 60 9 11 4 23 -10 39 -46 34 -76 76 -114 146 -135 338 -98 892
-92 1112 12 56 26 88 62 114 128 10 25 21 39 30 36 8 -2 22 -6 32 -8 27 -8 20
12 -9 25 -35 16 -30 57 6 57 31 0 43 18 15 23 -11 2 -23 7 -28 11 -4 4 -2 74
5 155 22 281 -26 747 -92 876 -17 33 -25 40 -51 40 -55 0 -102 -30 -193 -121
l-89 -91 -217 11 c-119 6 -242 9 -273 6 -31 -3 -81 -7 -111 -10 l-53 -5 -61
74 c-67 81 -148 141 -204 151 -31 6 -38 3 -57 -21z m94 -54 c17 -10 71 -60
120 -109 l90 -90 75 9 c103 12 351 12 494 -1 l120 -10 75 80 c121 128 187 160
210 104 19 -49 41 -158 56 -289 19 -158 29 -501 18 -609 -7 -72 -10 -80 -30
-83 -28 -4 -31 -32 -3 -32 12 0 20 -7 20 -16 0 -12 -6 -15 -25 -10 -18 5 -25
2 -25 -8 0 -8 7 -16 15 -20 21 -8 19 -38 -7 -93 -19 -41 -29 -50 -92 -78 -123
-56 -224 -70 -521 -69 -221 0 -278 4 -380 22 -218 40 -249 56 -292 152 -22 49
-23 55 -9 66 23 16 20 37 -4 29 -14 -5 -20 -2 -20 9 0 9 7 16 15 16 8 0 15 7
15 15 0 8 -8 15 -19 15 -11 0 -22 10 -26 22 -13 42 -18 524 -6 640 24 229 56
358 90 358 9 0 30 -9 46 -20z"/>
<path d="M455 665 c-46 -45 -22 -115 39 -115 41 0 60 21 60 67 0 25 -7 41 -23
54 -31 25 -47 24 -76 -6z"/>
<path d="M1232 683 c-25 -10 -43 -60 -31 -90 12 -33 26 -43 61 -43 57 0 79 82
32 119 -27 21 -38 24 -62 14z"/>
<path d="M827 574 c-14 -14 -7 -31 18 -44 25 -14 33 -44 15 -55 -5 -3 -10 -13
-10 -22 0 -13 3 -13 15 -3 12 10 19 10 27 2 22 -22 27 -12 10 18 -17 29 -17
30 11 56 15 14 26 31 24 37 -4 13 -99 22 -110 11z"/>
</g>
</svg>
