<svg width="56" height="91" viewBox="0 0 56 91" fill="none" xmlns="http://www.w3.org/2000/svg">
<path fill-rule="evenodd" clip-rule="evenodd" d="M0 0.81665H56L54.0622 0.816669H49.9378H46.0622H41.9378H38.0622H33.9378H30.0622H25.9378H22.0622H17.9378H14.0622H9.93782H6.06218H1.93782H0V0.81665ZM52 4.2609L48 10.9417L44 4.2609L40 10.9417L36 4.2609L32 10.9417L28 4.2609L24 10.9417L20 4.2609L16 10.9417L12 4.2609L8 10.9417L4 4.2609L0 10.9417V90.8167H56V10.9417L52 4.2609Z" fill="#A79FF0"/>
<path d="M26.5 23C18.062 23.008 13.698 23.16 10.928 25.928C8.16 28.7 8.008 33.062 8 41.5H17.828C17.1088 40.6024 16.5924 39.5599 16.314 38.444C15.24 34.14 19.14 30.24 23.444 31.314C24.588 31.6 25.624 32.126 26.5 32.828V23ZM8 44.5C8.008 52.936 8.16 57.3 10.928 60.07C13.7 62.84 18.062 62.99 26.5 63V47.246C25.7111 48.8249 24.498 50.1529 22.9966 51.0809C21.4952 52.0089 19.765 52.5003 18 52.5C17.6022 52.5 17.2206 52.342 16.9393 52.0607C16.658 51.7794 16.5 51.3978 16.5 51C16.5 50.6022 16.658 50.2206 16.9393 49.9393C17.2206 49.658 17.6022 49.5 18 49.5C19.4632 49.5 20.8837 49.0064 22.0317 48.099C23.1796 47.1917 23.988 45.9237 24.326 44.5H8ZM29.5 63C37.936 62.99 42.3 62.84 45.07 60.07C47.84 57.302 47.99 52.936 48 44.5H31.674C32.012 45.9237 32.8204 47.1917 33.9683 48.099C35.1163 49.0064 36.5368 49.5 38 49.5C38.3978 49.5 38.7794 49.658 39.0607 49.9393C39.342 50.2206 39.5 50.6022 39.5 51C39.5 51.3978 39.342 51.7794 39.0607 52.0607C38.7794 52.342 38.3978 52.5 38 52.5C36.235 52.5003 34.5048 52.0089 33.0034 51.0809C31.502 50.1529 30.2889 48.8249 29.5 47.246V63ZM48 41.5C47.99 33.062 47.84 28.698 45.07 25.928C42.302 23.16 37.936 23.008 29.5 23V32.828C30.397 32.1092 31.4388 31.5927 32.554 31.314C36.86 30.238 40.762 34.138 39.684 38.444C39.4062 39.5598 38.8904 40.6023 38.172 41.5H48Z" fill="white"/>
<path d="M22.7158 34.2263C23.7963 34.4962 24.7557 35.1195 25.4413 35.9972C26.127 36.8749 26.4995 37.9566 26.4998 39.0703V41.5003H24.0698C22.956 41.5 21.8743 41.1275 20.9966 40.4419C20.1189 39.7562 19.4956 38.7969 19.2258 37.7163C19.1059 37.2342 19.1127 36.7294 19.2456 36.2507C19.3785 35.7721 19.6329 35.3359 19.9842 34.9847C20.3354 34.6334 20.7715 34.379 21.2502 34.2461C21.7288 34.1132 22.2337 34.1064 22.7158 34.2263ZM29.4998 39.0703V41.5003H31.9298C34.2198 41.5003 36.2178 39.9403 36.7738 37.7163C36.8938 37.234 36.887 36.7289 36.7541 36.2501C36.6211 35.7712 36.3665 35.3349 36.0149 34.9836C35.6634 34.6323 35.227 34.3779 34.748 34.2452C34.2691 34.1125 33.764 34.106 33.2818 34.2263C32.2016 34.4965 31.2427 35.12 30.5575 35.9977C29.8722 36.8753 29.4999 37.9568 29.4998 39.0703Z" fill="white"/>
</svg>
